<mxfile host="Electron" agent="Mozilla/5.0 (X11; Linux x86_64) AppleWebKit/537.36 (KHTML, like Gecko) draw.io/24.7.5 Chrome/126.0.6478.183 Electron/31.3.0 Safari/537.36" version="24.7.5">
  <diagram name="Page-1" id="Gip8EVmhgsVVzwxMEOy4">
    <mxGraphModel dx="1247" dy="732" grid="1" gridSize="10" guides="1" tooltips="1" connect="1" arrows="1" fold="1" page="1" pageScale="1" pageWidth="3300" pageHeight="2339" math="0" shadow="0">
      <root>
        <mxCell id="0" />
        <mxCell id="1" parent="0" />
        <mxCell id="dldXP7hfsqRHYCWmdXZ0-34" style="edgeStyle=orthogonalEdgeStyle;rounded=0;orthogonalLoop=1;jettySize=auto;html=1;exitX=1;exitY=0.5;exitDx=0;exitDy=0;entryX=0;entryY=0.5;entryDx=0;entryDy=0;" edge="1" parent="1" source="rc3k4Lg6nsBuPKSFS65T-1" target="dldXP7hfsqRHYCWmdXZ0-32">
          <mxGeometry relative="1" as="geometry" />
        </mxCell>
        <mxCell id="rc3k4Lg6nsBuPKSFS65T-1" value="Battery Pack&lt;span style=&quot;color: rgba(0, 0, 0, 0); font-family: monospace; font-size: 0px; text-align: start; text-wrap: nowrap;&quot;&gt;%3CmxGraphModel%3E%3Croot%3E%3CmxCell%20id%3D%220%22%2F%3E%3CmxCell%20id%3D%221%22%20parent%3D%220%22%2F%3E%3CmxCell%20id%3D%222%22%20value%3D%22MediaCow%20Touch%202%20%26quot%3BParis%26quot%3B%20-%20CTCL%202021-2024%26lt%3Bbr%20style%3D%26quot%3Bfont-size%3A%2024px%3B%26quot%3B%26gt%3BDescription%3A%20Case%20physical%20layout%26lt%3Bbr%20style%3D%26quot%3Bfont-size%3A%2024px%3B%26quot%3B%26gt%3B%26lt%3Bdiv%20style%3D%26quot%3Bfont-size%3A%2024px%3B%26quot%3B%26gt%3BCreated%3A%20July%203%2C%202024%26lt%3B%2Fdiv%26gt%3B%26lt%3Bdiv%20style%3D%26quot%3Bfont-size%3A%2024px%3B%26quot%3B%26gt%3BModified%3A%20August%206%2C%202024%26lt%3B%2Fdiv%26gt%3B%22%20style%3D%22text%3Bhtml%3D1%3Balign%3Dleft%3BverticalAlign%3Dtop%3BwhiteSpace%3Dwrap%3Brounded%3D0%3BfontSize%3D24%3B%22%20vertex%3D%221%22%20parent%3D%221%22%3E%3CmxGeometry%20x%3D%2266.35%22%20y%3D%221070.86%22%20width%3D%22563.57%22%20height%3D%22133.86%22%20as%3D%22geometry%22%2F%3E%3C%2FmxCell%3E%3C%2Froot%3E%3C%2FmxGraphModel%3E&lt;/span&gt;" style="rounded=0;whiteSpace=wrap;html=1;" parent="1" vertex="1">
          <mxGeometry x="420" y="1090" width="170" height="100" as="geometry" />
        </mxCell>
        <mxCell id="K4e0NTNfeNRhpukzrk3Z-1" value="MediaCow Touch 2 &quot;Paris&quot; - CTCL 2021-2024&lt;br style=&quot;font-size: 24px;&quot;&gt;Description: Power subsystem layout&lt;br&gt;&lt;span style=&quot;background-color: initial;&quot;&gt;Created: August 25, 2024&lt;/span&gt;&lt;div style=&quot;font-size: 24px;&quot;&gt;Modified: August 26, 2024&lt;/div&gt;" style="text;html=1;align=left;verticalAlign=top;whiteSpace=wrap;rounded=0;fontSize=24;" parent="1" vertex="1">
          <mxGeometry x="10" y="10" width="563.57" height="133.86" as="geometry" />
        </mxCell>
        <mxCell id="K4e0NTNfeNRhpukzrk3Z-4" value="VBAT&lt;br&gt;12-16.8v" style="text;html=1;align=center;verticalAlign=middle;whiteSpace=wrap;rounded=0;" parent="1" vertex="1">
          <mxGeometry x="590" y="1110" width="60" height="30" as="geometry" />
        </mxCell>
        <mxCell id="dldXP7hfsqRHYCWmdXZ0-41" style="edgeStyle=orthogonalEdgeStyle;rounded=0;orthogonalLoop=1;jettySize=auto;html=1;exitX=0.5;exitY=1;exitDx=0;exitDy=0;entryX=0.5;entryY=1;entryDx=0;entryDy=0;" edge="1" parent="1" source="K4e0NTNfeNRhpukzrk3Z-5" target="dldXP7hfsqRHYCWmdXZ0-32">
          <mxGeometry relative="1" as="geometry" />
        </mxCell>
        <mxCell id="K4e0NTNfeNRhpukzrk3Z-5" value="TPS65988&lt;br&gt;+ MOSFETs" style="rounded=0;whiteSpace=wrap;html=1;" parent="1" vertex="1">
          <mxGeometry x="860" y="1080" width="80" height="80" as="geometry" />
        </mxCell>
        <mxCell id="K4e0NTNfeNRhpukzrk3Z-10" style="edgeStyle=orthogonalEdgeStyle;rounded=0;orthogonalLoop=1;jettySize=auto;html=1;exitX=0;exitY=0.5;exitDx=0;exitDy=0;entryX=1;entryY=0.75;entryDx=0;entryDy=0;startArrow=classic;startFill=1;" parent="1" source="K4e0NTNfeNRhpukzrk3Z-7" target="K4e0NTNfeNRhpukzrk3Z-5" edge="1">
          <mxGeometry relative="1" as="geometry" />
        </mxCell>
        <mxCell id="K4e0NTNfeNRhpukzrk3Z-7" value="USB C" style="rounded=0;whiteSpace=wrap;html=1;fillColor=#999999;" parent="1" vertex="1">
          <mxGeometry x="1120" y="1120" width="40" height="40" as="geometry" />
        </mxCell>
        <mxCell id="K4e0NTNfeNRhpukzrk3Z-9" style="edgeStyle=orthogonalEdgeStyle;rounded=0;orthogonalLoop=1;jettySize=auto;html=1;exitX=0;exitY=0.5;exitDx=0;exitDy=0;entryX=1;entryY=0.25;entryDx=0;entryDy=0;startArrow=classic;startFill=1;" parent="1" source="K4e0NTNfeNRhpukzrk3Z-8" target="K4e0NTNfeNRhpukzrk3Z-5" edge="1">
          <mxGeometry relative="1" as="geometry" />
        </mxCell>
        <mxCell id="K4e0NTNfeNRhpukzrk3Z-8" value="USB C" style="rounded=0;whiteSpace=wrap;html=1;fillColor=#999999;" parent="1" vertex="1">
          <mxGeometry x="1120" y="1080" width="40" height="40" as="geometry" />
        </mxCell>
        <mxCell id="K4e0NTNfeNRhpukzrk3Z-17" style="edgeStyle=orthogonalEdgeStyle;rounded=0;orthogonalLoop=1;jettySize=auto;html=1;exitX=1;exitY=0.5;exitDx=0;exitDy=0;entryX=0;entryY=0.75;entryDx=0;entryDy=0;" parent="1" source="K4e0NTNfeNRhpukzrk3Z-13" target="K4e0NTNfeNRhpukzrk3Z-5" edge="1">
          <mxGeometry relative="1" as="geometry" />
        </mxCell>
        <mxCell id="K4e0NTNfeNRhpukzrk3Z-13" value="MPS8599" style="rounded=0;whiteSpace=wrap;html=1;fontSize=8;" parent="1" vertex="1">
          <mxGeometry x="760" y="1120" width="40" height="40" as="geometry" />
        </mxCell>
        <mxCell id="K4e0NTNfeNRhpukzrk3Z-16" style="edgeStyle=orthogonalEdgeStyle;rounded=0;orthogonalLoop=1;jettySize=auto;html=1;exitX=1;exitY=0.5;exitDx=0;exitDy=0;entryX=0;entryY=0.25;entryDx=0;entryDy=0;" parent="1" source="K4e0NTNfeNRhpukzrk3Z-14" target="K4e0NTNfeNRhpukzrk3Z-5" edge="1">
          <mxGeometry relative="1" as="geometry" />
        </mxCell>
        <mxCell id="dldXP7hfsqRHYCWmdXZ0-23" style="edgeStyle=orthogonalEdgeStyle;rounded=0;orthogonalLoop=1;jettySize=auto;html=1;exitX=0;exitY=0.5;exitDx=0;exitDy=0;entryX=0;entryY=0.5;entryDx=0;entryDy=0;" edge="1" parent="1" source="K4e0NTNfeNRhpukzrk3Z-14" target="K4e0NTNfeNRhpukzrk3Z-13">
          <mxGeometry relative="1" as="geometry" />
        </mxCell>
        <mxCell id="K4e0NTNfeNRhpukzrk3Z-14" value="MPS8599" style="rounded=0;whiteSpace=wrap;html=1;fontSize=8;" parent="1" vertex="1">
          <mxGeometry x="760" y="1080" width="40" height="40" as="geometry" />
        </mxCell>
        <mxCell id="K4e0NTNfeNRhpukzrk3Z-20" value="&lt;font&gt;LattePanda Mu&lt;/font&gt;" style="rounded=0;whiteSpace=wrap;html=1;fontColor=#000000;fillColor=#999999;" parent="1" vertex="1">
          <mxGeometry x="600" y="520" width="160" height="120" as="geometry" />
        </mxCell>
        <mxCell id="K4e0NTNfeNRhpukzrk3Z-23" value="VBUS&lt;br&gt;20-21v" style="text;html=1;align=center;verticalAlign=middle;whiteSpace=wrap;rounded=0;" parent="1" vertex="1">
          <mxGeometry x="750" y="1180" width="60" height="30" as="geometry" />
        </mxCell>
        <mxCell id="K4e0NTNfeNRhpukzrk3Z-26" style="edgeStyle=orthogonalEdgeStyle;rounded=0;orthogonalLoop=1;jettySize=auto;html=1;exitX=0.5;exitY=0;exitDx=0;exitDy=0;entryX=0.5;entryY=1;entryDx=0;entryDy=0;" parent="1" source="K4e0NTNfeNRhpukzrk3Z-25" target="K4e0NTNfeNRhpukzrk3Z-20" edge="1">
          <mxGeometry relative="1" as="geometry" />
        </mxCell>
        <mxCell id="K4e0NTNfeNRhpukzrk3Z-25" value="BTS7006-1EPP" style="rounded=0;whiteSpace=wrap;html=1;fontSize=8;" parent="1" vertex="1">
          <mxGeometry x="650" y="680" width="60" height="40" as="geometry" />
        </mxCell>
        <mxCell id="K4e0NTNfeNRhpukzrk3Z-28" value="VSYS&lt;div&gt;12-20v&lt;/div&gt;" style="text;html=1;align=center;verticalAlign=middle;whiteSpace=wrap;rounded=0;" parent="1" vertex="1">
          <mxGeometry x="640" y="850" width="40" height="30" as="geometry" />
        </mxCell>
        <mxCell id="K4e0NTNfeNRhpukzrk3Z-29" value="&lt;font&gt;Fan&lt;/font&gt;" style="rounded=0;whiteSpace=wrap;html=1;fontColor=#000000;fillColor=#999999;" parent="1" vertex="1">
          <mxGeometry x="480" y="540" width="100" height="100" as="geometry" />
        </mxCell>
        <mxCell id="K4e0NTNfeNRhpukzrk3Z-35" style="edgeStyle=orthogonalEdgeStyle;rounded=0;orthogonalLoop=1;jettySize=auto;html=1;exitX=0.5;exitY=0;exitDx=0;exitDy=0;entryX=0.5;entryY=1;entryDx=0;entryDy=0;" parent="1" source="K4e0NTNfeNRhpukzrk3Z-31" target="K4e0NTNfeNRhpukzrk3Z-29" edge="1">
          <mxGeometry relative="1" as="geometry" />
        </mxCell>
        <mxCell id="K4e0NTNfeNRhpukzrk3Z-31" value="TPS563300" style="rounded=0;whiteSpace=wrap;html=1;fontSize=8;" parent="1" vertex="1">
          <mxGeometry x="500" y="680" width="60" height="40" as="geometry" />
        </mxCell>
        <mxCell id="K4e0NTNfeNRhpukzrk3Z-34" value="FAN_12V&lt;br&gt;12v" style="text;html=1;align=center;verticalAlign=middle;whiteSpace=wrap;rounded=0;" parent="1" vertex="1">
          <mxGeometry x="530" y="640" width="60" height="30" as="geometry" />
        </mxCell>
        <mxCell id="K4e0NTNfeNRhpukzrk3Z-36" value="VSYS_SW&lt;div&gt;12-20v&lt;/div&gt;" style="text;html=1;align=center;verticalAlign=middle;whiteSpace=wrap;rounded=0;" parent="1" vertex="1">
          <mxGeometry x="690" y="640" width="60" height="30" as="geometry" />
        </mxCell>
        <mxCell id="K4e0NTNfeNRhpukzrk3Z-39" value="USB A&lt;div style=&quot;font-size: 8px;&quot;&gt;2.0&lt;/div&gt;" style="rounded=0;whiteSpace=wrap;html=1;fontSize=8;fillColor=#999999;" parent="1" vertex="1">
          <mxGeometry x="1160" y="600" width="40" height="20" as="geometry" />
        </mxCell>
        <mxCell id="K4e0NTNfeNRhpukzrk3Z-40" value="USB A&lt;div style=&quot;font-size: 8px;&quot;&gt;2.0&lt;/div&gt;" style="rounded=0;whiteSpace=wrap;html=1;fontSize=8;fillColor=#999999;" parent="1" vertex="1">
          <mxGeometry x="1160" y="620" width="40" height="20" as="geometry" />
        </mxCell>
        <mxCell id="K4e0NTNfeNRhpukzrk3Z-41" value="USB A&lt;div style=&quot;font-size: 8px;&quot;&gt;3.0&lt;/div&gt;" style="rounded=0;whiteSpace=wrap;html=1;fontSize=8;fillColor=#999999;" parent="1" vertex="1">
          <mxGeometry x="1160" y="640" width="40" height="20" as="geometry" />
        </mxCell>
        <mxCell id="K4e0NTNfeNRhpukzrk3Z-42" value="USB A&lt;div style=&quot;font-size: 8px;&quot;&gt;3.0&lt;/div&gt;" style="rounded=0;whiteSpace=wrap;html=1;fontSize=8;fillColor=#999999;" parent="1" vertex="1">
          <mxGeometry x="1160" y="660" width="40" height="20" as="geometry" />
        </mxCell>
        <mxCell id="K4e0NTNfeNRhpukzrk3Z-51" style="edgeStyle=orthogonalEdgeStyle;rounded=0;orthogonalLoop=1;jettySize=auto;html=1;exitX=1;exitY=0.5;exitDx=0;exitDy=0;entryX=0;entryY=0.5;entryDx=0;entryDy=0;" parent="1" source="K4e0NTNfeNRhpukzrk3Z-44" target="K4e0NTNfeNRhpukzrk3Z-42" edge="1">
          <mxGeometry relative="1" as="geometry" />
        </mxCell>
        <mxCell id="dldXP7hfsqRHYCWmdXZ0-8" style="edgeStyle=orthogonalEdgeStyle;rounded=0;orthogonalLoop=1;jettySize=auto;html=1;exitX=0;exitY=0.5;exitDx=0;exitDy=0;entryX=0;entryY=0.5;entryDx=0;entryDy=0;" edge="1" parent="1" source="K4e0NTNfeNRhpukzrk3Z-44" target="K4e0NTNfeNRhpukzrk3Z-45">
          <mxGeometry relative="1" as="geometry">
            <Array as="points">
              <mxPoint x="1080" y="670" />
              <mxPoint x="1080" y="650" />
            </Array>
          </mxGeometry>
        </mxCell>
        <mxCell id="K4e0NTNfeNRhpukzrk3Z-44" value="TPS25221" style="rounded=0;whiteSpace=wrap;html=1;fontSize=8;" parent="1" vertex="1">
          <mxGeometry x="1100" y="660" width="40" height="20" as="geometry" />
        </mxCell>
        <mxCell id="K4e0NTNfeNRhpukzrk3Z-50" style="edgeStyle=orthogonalEdgeStyle;rounded=0;orthogonalLoop=1;jettySize=auto;html=1;exitX=1;exitY=0.5;exitDx=0;exitDy=0;entryX=0;entryY=0.5;entryDx=0;entryDy=0;" parent="1" source="K4e0NTNfeNRhpukzrk3Z-45" target="K4e0NTNfeNRhpukzrk3Z-41" edge="1">
          <mxGeometry relative="1" as="geometry" />
        </mxCell>
        <mxCell id="dldXP7hfsqRHYCWmdXZ0-9" style="edgeStyle=orthogonalEdgeStyle;rounded=0;orthogonalLoop=1;jettySize=auto;html=1;exitX=0;exitY=0.5;exitDx=0;exitDy=0;entryX=0;entryY=0.5;entryDx=0;entryDy=0;" edge="1" parent="1" source="K4e0NTNfeNRhpukzrk3Z-45" target="K4e0NTNfeNRhpukzrk3Z-46">
          <mxGeometry relative="1" as="geometry">
            <Array as="points">
              <mxPoint x="1080" y="650" />
              <mxPoint x="1080" y="630" />
            </Array>
          </mxGeometry>
        </mxCell>
        <mxCell id="K4e0NTNfeNRhpukzrk3Z-45" value="TPS25221" style="rounded=0;whiteSpace=wrap;html=1;fontSize=8;" parent="1" vertex="1">
          <mxGeometry x="1100" y="640" width="40" height="20" as="geometry" />
        </mxCell>
        <mxCell id="K4e0NTNfeNRhpukzrk3Z-49" style="edgeStyle=orthogonalEdgeStyle;rounded=0;orthogonalLoop=1;jettySize=auto;html=1;exitX=1;exitY=0.5;exitDx=0;exitDy=0;entryX=0;entryY=0.5;entryDx=0;entryDy=0;" parent="1" source="K4e0NTNfeNRhpukzrk3Z-46" target="K4e0NTNfeNRhpukzrk3Z-40" edge="1">
          <mxGeometry relative="1" as="geometry" />
        </mxCell>
        <mxCell id="dldXP7hfsqRHYCWmdXZ0-10" style="edgeStyle=orthogonalEdgeStyle;rounded=0;orthogonalLoop=1;jettySize=auto;html=1;exitX=0;exitY=0.5;exitDx=0;exitDy=0;entryX=0;entryY=0.5;entryDx=0;entryDy=0;" edge="1" parent="1" source="K4e0NTNfeNRhpukzrk3Z-46" target="K4e0NTNfeNRhpukzrk3Z-47">
          <mxGeometry relative="1" as="geometry">
            <Array as="points">
              <mxPoint x="1080" y="630" />
              <mxPoint x="1080" y="610" />
            </Array>
          </mxGeometry>
        </mxCell>
        <mxCell id="K4e0NTNfeNRhpukzrk3Z-46" value="TPS25221" style="rounded=0;whiteSpace=wrap;html=1;fontSize=8;" parent="1" vertex="1">
          <mxGeometry x="1100" y="620" width="40" height="20" as="geometry" />
        </mxCell>
        <mxCell id="K4e0NTNfeNRhpukzrk3Z-48" style="edgeStyle=orthogonalEdgeStyle;rounded=0;orthogonalLoop=1;jettySize=auto;html=1;exitX=1;exitY=0.5;exitDx=0;exitDy=0;entryX=0;entryY=0.5;entryDx=0;entryDy=0;" parent="1" source="K4e0NTNfeNRhpukzrk3Z-47" target="K4e0NTNfeNRhpukzrk3Z-39" edge="1">
          <mxGeometry relative="1" as="geometry" />
        </mxCell>
        <mxCell id="K4e0NTNfeNRhpukzrk3Z-47" value="TPS25221" style="rounded=0;whiteSpace=wrap;html=1;fontSize=8;" parent="1" vertex="1">
          <mxGeometry x="1100" y="600" width="40" height="20" as="geometry" />
        </mxCell>
        <mxCell id="dldXP7hfsqRHYCWmdXZ0-7" style="edgeStyle=orthogonalEdgeStyle;rounded=0;orthogonalLoop=1;jettySize=auto;html=1;exitX=1;exitY=0.5;exitDx=0;exitDy=0;entryX=0;entryY=0.5;entryDx=0;entryDy=0;" edge="1" parent="1" source="dldXP7hfsqRHYCWmdXZ0-1" target="K4e0NTNfeNRhpukzrk3Z-44">
          <mxGeometry relative="1" as="geometry">
            <Array as="points">
              <mxPoint x="1080" y="640" />
              <mxPoint x="1080" y="670" />
            </Array>
          </mxGeometry>
        </mxCell>
        <mxCell id="dldXP7hfsqRHYCWmdXZ0-1" value="TPS51386" style="rounded=0;whiteSpace=wrap;html=1;fontSize=8;" vertex="1" parent="1">
          <mxGeometry x="1000" y="620" width="40" height="40" as="geometry" />
        </mxCell>
        <mxCell id="dldXP7hfsqRHYCWmdXZ0-14" value="TCP0_PPHV&lt;div style=&quot;font-size: 8px;&quot;&gt;5-20v&lt;/div&gt;" style="text;html=1;align=center;verticalAlign=middle;whiteSpace=wrap;rounded=0;fontSize=8;" vertex="1" parent="1">
          <mxGeometry x="800" y="1080" width="60" height="20" as="geometry" />
        </mxCell>
        <mxCell id="dldXP7hfsqRHYCWmdXZ0-15" value="&lt;div style=&quot;font-size: 8px;&quot;&gt;TCP1_PPHV&lt;br&gt;5-20v&lt;/div&gt;" style="text;html=1;align=center;verticalAlign=middle;whiteSpace=wrap;rounded=0;fontSize=8;" vertex="1" parent="1">
          <mxGeometry x="800" y="1120" width="60" height="20" as="geometry" />
        </mxCell>
        <mxCell id="dldXP7hfsqRHYCWmdXZ0-16" value="USB_5V&lt;br style=&quot;font-size: 8px;&quot;&gt;5V" style="text;html=1;align=center;verticalAlign=middle;whiteSpace=wrap;rounded=0;fontSize=8;" vertex="1" parent="1">
          <mxGeometry x="1040" y="620" width="40" height="20" as="geometry" />
        </mxCell>
        <mxCell id="dldXP7hfsqRHYCWmdXZ0-30" style="edgeStyle=orthogonalEdgeStyle;rounded=0;orthogonalLoop=1;jettySize=auto;html=1;exitX=0;exitY=0.5;exitDx=0;exitDy=0;entryX=1;entryY=0.5;entryDx=0;entryDy=0;" edge="1" parent="1" source="dldXP7hfsqRHYCWmdXZ0-25" target="dldXP7hfsqRHYCWmdXZ0-28">
          <mxGeometry relative="1" as="geometry">
            <Array as="points">
              <mxPoint x="380" y="780" />
              <mxPoint x="380" y="760" />
            </Array>
          </mxGeometry>
        </mxCell>
        <mxCell id="dldXP7hfsqRHYCWmdXZ0-31" style="edgeStyle=orthogonalEdgeStyle;rounded=0;orthogonalLoop=1;jettySize=auto;html=1;exitX=0;exitY=0.5;exitDx=0;exitDy=0;entryX=1;entryY=0.5;entryDx=0;entryDy=0;" edge="1" parent="1" source="dldXP7hfsqRHYCWmdXZ0-25" target="dldXP7hfsqRHYCWmdXZ0-29">
          <mxGeometry relative="1" as="geometry">
            <Array as="points">
              <mxPoint x="380" y="780" />
              <mxPoint x="380" y="800" />
            </Array>
          </mxGeometry>
        </mxCell>
        <mxCell id="dldXP7hfsqRHYCWmdXZ0-25" value="TPS51386" style="rounded=0;whiteSpace=wrap;html=1;fontSize=8;" vertex="1" parent="1">
          <mxGeometry x="440" y="760" width="40" height="40" as="geometry" />
        </mxCell>
        <mxCell id="dldXP7hfsqRHYCWmdXZ0-28" value="&lt;font&gt;M.2 Key M slot&lt;/font&gt;" style="rounded=0;whiteSpace=wrap;html=1;fontColor=#000000;fillColor=#999999;" vertex="1" parent="1">
          <mxGeometry x="260" y="740" width="100" height="40" as="geometry" />
        </mxCell>
        <mxCell id="dldXP7hfsqRHYCWmdXZ0-29" value="&lt;font&gt;M.2 Key E slot&lt;/font&gt;" style="rounded=0;whiteSpace=wrap;html=1;fontColor=#000000;fillColor=#999999;" vertex="1" parent="1">
          <mxGeometry x="260" y="780" width="100" height="40" as="geometry" />
        </mxCell>
        <mxCell id="dldXP7hfsqRHYCWmdXZ0-35" style="edgeStyle=orthogonalEdgeStyle;rounded=0;orthogonalLoop=1;jettySize=auto;html=1;exitX=0.5;exitY=0;exitDx=0;exitDy=0;entryX=0;entryY=0.5;entryDx=0;entryDy=0;" edge="1" parent="1" source="dldXP7hfsqRHYCWmdXZ0-32" target="K4e0NTNfeNRhpukzrk3Z-14">
          <mxGeometry relative="1" as="geometry" />
        </mxCell>
        <mxCell id="dldXP7hfsqRHYCWmdXZ0-36" style="edgeStyle=orthogonalEdgeStyle;rounded=0;orthogonalLoop=1;jettySize=auto;html=1;exitX=0.5;exitY=0;exitDx=0;exitDy=0;" edge="1" parent="1" source="dldXP7hfsqRHYCWmdXZ0-32" target="K4e0NTNfeNRhpukzrk3Z-25">
          <mxGeometry relative="1" as="geometry" />
        </mxCell>
        <mxCell id="dldXP7hfsqRHYCWmdXZ0-38" style="edgeStyle=orthogonalEdgeStyle;rounded=0;orthogonalLoop=1;jettySize=auto;html=1;exitX=0.5;exitY=0;exitDx=0;exitDy=0;entryX=0.5;entryY=1;entryDx=0;entryDy=0;" edge="1" parent="1" source="dldXP7hfsqRHYCWmdXZ0-32" target="K4e0NTNfeNRhpukzrk3Z-31">
          <mxGeometry relative="1" as="geometry">
            <Array as="points">
              <mxPoint x="680" y="780" />
              <mxPoint x="530" y="780" />
            </Array>
          </mxGeometry>
        </mxCell>
        <mxCell id="dldXP7hfsqRHYCWmdXZ0-39" style="edgeStyle=orthogonalEdgeStyle;rounded=0;orthogonalLoop=1;jettySize=auto;html=1;exitX=0.5;exitY=0;exitDx=0;exitDy=0;entryX=1;entryY=0.5;entryDx=0;entryDy=0;" edge="1" parent="1" source="dldXP7hfsqRHYCWmdXZ0-32" target="dldXP7hfsqRHYCWmdXZ0-25">
          <mxGeometry relative="1" as="geometry" />
        </mxCell>
        <mxCell id="dldXP7hfsqRHYCWmdXZ0-40" style="edgeStyle=orthogonalEdgeStyle;rounded=0;orthogonalLoop=1;jettySize=auto;html=1;exitX=0.5;exitY=0;exitDx=0;exitDy=0;entryX=0;entryY=0.5;entryDx=0;entryDy=0;" edge="1" parent="1" source="dldXP7hfsqRHYCWmdXZ0-32" target="dldXP7hfsqRHYCWmdXZ0-1">
          <mxGeometry relative="1" as="geometry">
            <Array as="points">
              <mxPoint x="680" y="780" />
              <mxPoint x="940" y="780" />
              <mxPoint x="940" y="640" />
            </Array>
          </mxGeometry>
        </mxCell>
        <mxCell id="dldXP7hfsqRHYCWmdXZ0-73" style="edgeStyle=orthogonalEdgeStyle;rounded=0;orthogonalLoop=1;jettySize=auto;html=1;exitX=0.5;exitY=0;exitDx=0;exitDy=0;entryX=0;entryY=0.5;entryDx=0;entryDy=0;" edge="1" parent="1" source="dldXP7hfsqRHYCWmdXZ0-32" target="dldXP7hfsqRHYCWmdXZ0-61">
          <mxGeometry relative="1" as="geometry">
            <Array as="points">
              <mxPoint x="680" y="780" />
              <mxPoint x="940" y="780" />
              <mxPoint x="940" y="750" />
            </Array>
          </mxGeometry>
        </mxCell>
        <mxCell id="dldXP7hfsqRHYCWmdXZ0-74" style="edgeStyle=orthogonalEdgeStyle;rounded=0;orthogonalLoop=1;jettySize=auto;html=1;exitX=0.5;exitY=0;exitDx=0;exitDy=0;entryX=0;entryY=0.5;entryDx=0;entryDy=0;" edge="1" parent="1" source="dldXP7hfsqRHYCWmdXZ0-32" target="dldXP7hfsqRHYCWmdXZ0-60">
          <mxGeometry relative="1" as="geometry">
            <Array as="points">
              <mxPoint x="680" y="780" />
              <mxPoint x="940" y="780" />
              <mxPoint x="940" y="720" />
            </Array>
          </mxGeometry>
        </mxCell>
        <mxCell id="dldXP7hfsqRHYCWmdXZ0-75" style="edgeStyle=orthogonalEdgeStyle;rounded=0;orthogonalLoop=1;jettySize=auto;html=1;exitX=0.5;exitY=0;exitDx=0;exitDy=0;entryX=0;entryY=0.5;entryDx=0;entryDy=0;" edge="1" parent="1" source="dldXP7hfsqRHYCWmdXZ0-32" target="dldXP7hfsqRHYCWmdXZ0-57">
          <mxGeometry relative="1" as="geometry">
            <Array as="points">
              <mxPoint x="680" y="780" />
              <mxPoint x="940" y="780" />
              <mxPoint x="940" y="700" />
            </Array>
          </mxGeometry>
        </mxCell>
        <mxCell id="dldXP7hfsqRHYCWmdXZ0-32" value="&lt;p style=&quot;line-height: 80%;&quot;&gt;&lt;span style=&quot;font-size: 8px;&quot;&gt;LTC4162-L + MOSFETs&lt;/span&gt;&lt;/p&gt;" style="rounded=0;whiteSpace=wrap;html=1;" vertex="1" parent="1">
          <mxGeometry x="655" y="1120" width="50" height="40" as="geometry" />
        </mxCell>
        <mxCell id="dldXP7hfsqRHYCWmdXZ0-49" style="edgeStyle=orthogonalEdgeStyle;rounded=0;orthogonalLoop=1;jettySize=auto;html=1;exitX=1;exitY=0.5;exitDx=0;exitDy=0;entryX=0;entryY=0.5;entryDx=0;entryDy=0;" edge="1" parent="1" source="dldXP7hfsqRHYCWmdXZ0-43" target="dldXP7hfsqRHYCWmdXZ0-48">
          <mxGeometry relative="1" as="geometry" />
        </mxCell>
        <mxCell id="dldXP7hfsqRHYCWmdXZ0-78" style="edgeStyle=orthogonalEdgeStyle;rounded=0;orthogonalLoop=1;jettySize=auto;html=1;exitX=1;exitY=0.5;exitDx=0;exitDy=0;entryX=0;entryY=0.5;entryDx=0;entryDy=0;" edge="1" parent="1" source="dldXP7hfsqRHYCWmdXZ0-43" target="dldXP7hfsqRHYCWmdXZ0-77">
          <mxGeometry relative="1" as="geometry" />
        </mxCell>
        <mxCell id="dldXP7hfsqRHYCWmdXZ0-43" value="AP3401DN" style="rounded=0;whiteSpace=wrap;html=1;fontSize=8;" vertex="1" parent="1">
          <mxGeometry x="1040" y="930" width="40" height="40" as="geometry" />
        </mxCell>
        <mxCell id="dldXP7hfsqRHYCWmdXZ0-48" value="Intel&lt;br&gt;I210" style="rounded=0;whiteSpace=wrap;html=1;fontSize=8;fillColor=#999999;" vertex="1" parent="1">
          <mxGeometry x="1140" y="930" width="40" height="40" as="geometry" />
        </mxCell>
        <mxCell id="dldXP7hfsqRHYCWmdXZ0-50" value="AP3401DN&lt;br&gt;&lt;b&gt;Always&lt;/b&gt;&lt;div&gt;&lt;b&gt;On&lt;/b&gt;&lt;/div&gt;" style="rounded=0;whiteSpace=wrap;html=1;fontSize=8;" vertex="1" parent="1">
          <mxGeometry x="760" y="880" width="40" height="40" as="geometry" />
        </mxCell>
        <mxCell id="dldXP7hfsqRHYCWmdXZ0-51" value="&lt;font style=&quot;font-size: 12px;&quot;&gt;SMEC&lt;/font&gt;&lt;br style=&quot;font-size: 8px;&quot;&gt;STM32L496VGT &lt;br&gt;+ SiT1602&lt;br&gt;+ SiT1533" style="rounded=0;whiteSpace=wrap;html=1;fontSize=8;fillColor=#999999;" vertex="1" parent="1">
          <mxGeometry x="410" y="880" width="80" height="80" as="geometry" />
        </mxCell>
        <mxCell id="dldXP7hfsqRHYCWmdXZ0-54" value="OLED" style="rounded=0;whiteSpace=wrap;html=1;fontSize=8;fillColor=#999999;" vertex="1" parent="1">
          <mxGeometry x="1160" y="690" width="40" height="40" as="geometry" />
        </mxCell>
        <mxCell id="dldXP7hfsqRHYCWmdXZ0-55" value="M2_3V3&lt;br&gt;3.3v" style="text;html=1;align=center;verticalAlign=middle;whiteSpace=wrap;rounded=0;" vertex="1" parent="1">
          <mxGeometry x="380" y="750" width="60" height="30" as="geometry" />
        </mxCell>
        <mxCell id="dldXP7hfsqRHYCWmdXZ0-63" style="edgeStyle=orthogonalEdgeStyle;rounded=0;orthogonalLoop=1;jettySize=auto;html=1;exitX=1;exitY=0.5;exitDx=0;exitDy=0;entryX=0;entryY=0.25;entryDx=0;entryDy=0;" edge="1" parent="1" source="dldXP7hfsqRHYCWmdXZ0-57" target="dldXP7hfsqRHYCWmdXZ0-54">
          <mxGeometry relative="1" as="geometry" />
        </mxCell>
        <mxCell id="dldXP7hfsqRHYCWmdXZ0-57" value="SY21019" style="rounded=0;whiteSpace=wrap;html=1;fontSize=8;" vertex="1" parent="1">
          <mxGeometry x="1000" y="690" width="40" height="20" as="geometry" />
        </mxCell>
        <mxCell id="dldXP7hfsqRHYCWmdXZ0-59" value="Keypad" style="rounded=0;whiteSpace=wrap;html=1;fontSize=8;fillColor=#999999;" vertex="1" parent="1">
          <mxGeometry x="1160" y="730" width="40" height="40" as="geometry" />
        </mxCell>
        <mxCell id="dldXP7hfsqRHYCWmdXZ0-62" style="edgeStyle=orthogonalEdgeStyle;rounded=0;orthogonalLoop=1;jettySize=auto;html=1;exitX=1;exitY=0.5;exitDx=0;exitDy=0;entryX=0;entryY=0.75;entryDx=0;entryDy=0;" edge="1" parent="1" source="dldXP7hfsqRHYCWmdXZ0-60" target="dldXP7hfsqRHYCWmdXZ0-54">
          <mxGeometry relative="1" as="geometry" />
        </mxCell>
        <mxCell id="dldXP7hfsqRHYCWmdXZ0-60" value="SY21019" style="rounded=0;whiteSpace=wrap;html=1;fontSize=8;" vertex="1" parent="1">
          <mxGeometry x="1000" y="710" width="40" height="20" as="geometry" />
        </mxCell>
        <mxCell id="dldXP7hfsqRHYCWmdXZ0-72" style="edgeStyle=orthogonalEdgeStyle;rounded=0;orthogonalLoop=1;jettySize=auto;html=1;exitX=1;exitY=0.5;exitDx=0;exitDy=0;entryX=0;entryY=0.5;entryDx=0;entryDy=0;" edge="1" parent="1" source="dldXP7hfsqRHYCWmdXZ0-61" target="dldXP7hfsqRHYCWmdXZ0-59">
          <mxGeometry relative="1" as="geometry" />
        </mxCell>
        <mxCell id="dldXP7hfsqRHYCWmdXZ0-61" value="SY21019" style="rounded=0;whiteSpace=wrap;html=1;fontSize=8;" vertex="1" parent="1">
          <mxGeometry x="1000" y="740" width="40" height="20" as="geometry" />
        </mxCell>
        <mxCell id="dldXP7hfsqRHYCWmdXZ0-68" value="&lt;p style=&quot;line-height: 70%;&quot;&gt;&lt;span style=&quot;font-size: 8px;&quot;&gt;OLED_VOLED&lt;/span&gt;&lt;br style=&quot;padding: 0px; margin: 0px; font-size: 8px;&quot;&gt;&lt;span style=&quot;font-size: 8px;&quot;&gt;12v&lt;/span&gt;&lt;/p&gt;" style="text;html=1;align=center;verticalAlign=middle;whiteSpace=wrap;rounded=0;" vertex="1" parent="1">
          <mxGeometry x="1070" y="700" width="60" height="20" as="geometry" />
        </mxCell>
        <mxCell id="dldXP7hfsqRHYCWmdXZ0-69" value="&lt;p style=&quot;line-height: 70%;&quot;&gt;&lt;span style=&quot;font-size: 8px;&quot;&gt;OLED_VDD&lt;/span&gt;&lt;br style=&quot;padding: 0px; margin: 0px; font-size: 8px;&quot;&gt;&lt;span style=&quot;font-size: 8px;&quot;&gt;3.3v&lt;/span&gt;&lt;/p&gt;" style="text;html=1;align=center;verticalAlign=middle;whiteSpace=wrap;rounded=0;" vertex="1" parent="1">
          <mxGeometry x="1070" y="680" width="60" height="20" as="geometry" />
        </mxCell>
        <mxCell id="dldXP7hfsqRHYCWmdXZ0-71" value="&lt;p style=&quot;line-height: 70%;&quot;&gt;&lt;span style=&quot;font-size: 8px;&quot;&gt;KP_VDD&lt;/span&gt;&lt;br style=&quot;padding: 0px; margin: 0px; font-size: 8px;&quot;&gt;&lt;span style=&quot;font-size: 8px;&quot;&gt;3.3v&lt;/span&gt;&lt;/p&gt;" style="text;html=1;align=center;verticalAlign=middle;whiteSpace=wrap;rounded=0;" vertex="1" parent="1">
          <mxGeometry x="1070" y="730" width="60" height="20" as="geometry" />
        </mxCell>
        <mxCell id="dldXP7hfsqRHYCWmdXZ0-77" value="W25Q16&lt;br&gt;JVSS" style="rounded=0;whiteSpace=wrap;html=1;fontSize=6;fillColor=#999999;" vertex="1" parent="1">
          <mxGeometry x="1150" y="970" width="30" height="20" as="geometry" />
        </mxCell>
      </root>
    </mxGraphModel>
  </diagram>
</mxfile>
